HIERARCHY
ROOT Hips
{
	OFFSET 0.0000 0.0000 0.0000
	CHANNELS 6 Xposition Yposition Zposition Zrotation Xrotation Yrotation
	JOINT Spine1
	{
		OFFSET -0.0137 5.0038 -0.0537
		CHANNELS 3 Zrotation Xrotation Yrotation
		JOINT Spine2
		{
			OFFSET -0.0000 7.1253 -0.0298
			CHANNELS 3 Zrotation Xrotation Yrotation
			JOINT Chest
			{
				OFFSET -0.0000 7.5501 -0.8160
				CHANNELS 3 Zrotation Xrotation Yrotation
				JOINT Neck1
				{
					OFFSET -0.1817 26.3113 -0.5533
					CHANNELS 3 Zrotation Xrotation Yrotation
					JOINT Neck2
					{
						OFFSET -0.0000 7.7094 2.3026
						CHANNELS 3 Zrotation Xrotation Yrotation
						JOINT Head
						{
							OFFSET -0.0000 6.1289 1.9537
							CHANNELS 3 Zrotation Xrotation Yrotation
							JOINT Jaw
							{
								OFFSET 0.0026 0.4756 3.0949
								CHANNELS 3 Zrotation Xrotation Yrotation
								End Site
								{
									OFFSET 0.0 1.0 0.0
								}
							}
							JOINT LeftEye
							{
								OFFSET 3.2064 5.3802 7.5869
								CHANNELS 3 Zrotation Xrotation Yrotation
								End Site
								{
									OFFSET 0.0 1.0 0.0
								}
							}
							JOINT RightEye
							{
								OFFSET -3.2224 5.3619 7.5582
								CHANNELS 3 Zrotation Xrotation Yrotation
								End Site
								{
									OFFSET 0.0 1.0 0.0
								}
							}
						}
					}
				}
				JOINT LeftShoulder
				{
					OFFSET 1.6217 23.2372 5.1134
					CHANNELS 3 Zrotation Xrotation Yrotation
					JOINT LeftArm
					{
						OFFSET 14.9198 0.0000 -5.5023
						CHANNELS 3 Zrotation Xrotation Yrotation
						JOINT LeftForeArm
						{
							OFFSET 28.7393 0.0000 -0.0026
							CHANNELS 3 Zrotation Xrotation Yrotation
							JOINT LeftHand
							{
								OFFSET 27.0940 -0.0000 0.0026
								CHANNELS 3 Zrotation Xrotation Yrotation
								JOINT LeftHandThumbEnd
								{
									OFFSET 12.2686 -3.2202 4.8331
									CHANNELS 3 Zrotation Xrotation Yrotation
									End Site
									{
										OFFSET 0.0 1.0 0.0
									}
								}
								JOINT LeftHandMiddleEnd
								{
									OFFSET 19.0120 -0.3129 -0.0340
									CHANNELS 3 Zrotation Xrotation Yrotation
									End Site
									{
										OFFSET 0.0 1.0 0.0
									}
								}
							}
						}
					}
				}
				JOINT RightShoulder
				{
					OFFSET -1.3801 23.1803 5.2142
					CHANNELS 3 Zrotation Xrotation Yrotation
					JOINT RightArm
					{
						OFFSET -15.0372 0.0000 -5.5456
						CHANNELS 3 Zrotation Xrotation Yrotation
						JOINT RightForeArm
						{
							OFFSET -28.7366 0.0000 -0.0026
							CHANNELS 3 Zrotation Xrotation Yrotation
							JOINT RightHand
							{
								OFFSET -27.1336 -0.0000 0.0026
								CHANNELS 3 Zrotation Xrotation Yrotation
								JOINT RightHandThumbEnd
								{
									OFFSET -12.2642 -3.2115 4.8040
									CHANNELS 3 Zrotation Xrotation Yrotation
									End Site
									{
										OFFSET 0.0 1.0 0.0
									}
								}
								JOINT RightHandMiddleEnd
								{
									OFFSET -19.0006 -0.3066 -0.0316
									CHANNELS 3 Zrotation Xrotation Yrotation
									End Site
									{
										OFFSET 0.0 1.0 0.0
									}
								}
							}
						}
					}
				}
			}
		}
	}
	JOINT LeftLeg
	{
		OFFSET 10.0432 -8.4345 2.5957
		CHANNELS 3 Zrotation Xrotation Yrotation
		JOINT LeftShin
		{
			OFFSET -0.0000 -43.2218 -0.8029
			CHANNELS 3 Zrotation Xrotation Yrotation
			JOINT LeftFoot
			{
				OFFSET 0.0000 -42.1551 -3.4815
				CHANNELS 3 Zrotation Xrotation Yrotation
				JOINT LeftToeBase
				{
					OFFSET 0.0000 -5.0595 13.2315
					CHANNELS 3 Zrotation Xrotation Yrotation
					End Site
					{
						OFFSET 0.0 1.0 0.0
					}
				}
			}
		}
	}
	JOINT RightLeg
	{
		OFFSET -10.0473 -8.2953 2.6203
		CHANNELS 3 Zrotation Xrotation Yrotation
		JOINT RightShin
		{
			OFFSET 0.0000 -43.3622 -0.8056
			CHANNELS 3 Zrotation Xrotation Yrotation
			JOINT RightFoot
			{
				OFFSET 0.0000 -42.1174 -3.4784
				CHANNELS 3 Zrotation Xrotation Yrotation
				JOINT RightToeBase
				{
					OFFSET -0.0000 -5.0796 13.2842
					CHANNELS 3 Zrotation Xrotation Yrotation
					End Site
					{
						OFFSET 0.0 1.0 0.0
					}
				}
			}
		}
	}
}
MOTION
Frames: 8
Frame Time: 0.033333
6.5052 93.7901 557.3433 2.6259 -6.3056 7.8305 -3.4841 2.4712 -0.7677 -1.2841 -3.8817 -3.1050 -0.3903 14.0113 -5.1769 6.5637 -1.4613 0.5135 -0.9263 -3.3956 -0.2962 -4.1728 -13.9622 1.3559 0.0182 0.0437 -0.0562 0.6817 -10.5916 -3.9414 -0.6445 -10.5799 3.8217 -2.2465 12.6817 -6.7697 -47.0919 -7.3134 -33.6696 0.3162 -0.0670 -43.2568 13.6401 -9.1853 -1.2894 -14.6067 10.9687 16.0724 -60.3281 1.5378 2.1343 11.8190 14.2788 3.3312 69.7753 4.3922 12.5322 0.0790 0.0419 8.7777 3.9409 -1.8633 -6.2618 15.3254 7.2314 -15.7036 50.6082 -3.8672 -4.9428 -1.1621 30.7966 -0.2320 0.1242 2.0255 -0.4270 2.6589 -9.0075 -6.2597 2.0140 -10.9783 -2.2511 -2.2488 -28.8912 -6.8434 0.1033 9.8004 0.2501 1.1099 -6.1226 -7.0552 -1.3730 -6.7857 1.2766
6.1416 93.5470 564.8221 1.8930 -5.0899 8.6013 -3.0901 1.6339 -0.8230 -1.1312 -4.1428 -3.5770 -0.1575 13.5890 -5.2841 6.1085 -1.8073 0.7610 -1.0529 -3.4762 -0.3514 -3.9983 -13.5265 0.8274 0.0135 0.0379 -0.0371 0.6799 -10.5763 -3.9257 -0.6513 -10.5579 3.8411 -2.4332 12.6644 -6.7466 -47.5445 -6.7935 -33.3492 0.3434 0.0706 -43.1684 13.5708 -9.3563 -0.9396 -14.5658 10.8358 15.8994 -59.9156 1.4173 2.1210 11.6824 14.2657 3.2572 70.6416 5.3173 12.4275 -0.0015 0.0425 8.5112 4.2898 -2.1682 -6.4941 15.5547 7.3160 -15.8189 51.1273 -3.7016 -4.7853 2.0871 31.1725 2.0423 0.2100 5.9351 -0.8049 2.3842 -2.6298 -7.8744 2.2802 -19.9354 -2.5728 -1.0872 -29.1963 -6.6265 0.1835 15.1418 0.2721 0.4606 -6.0887 -6.2366 -1.4142 -7.3266 1.3239
5.6508 93.9854 572.1408 -0.1635 -3.3392 8.8655 -1.5468 0.4631 -0.7361 -0.8559 -4.6862 -3.7256 0.5214 13.3331 -5.1909 5.0716 -2.7582 1.1461 -1.2233 -3.5676 -0.2385 -3.9683 -12.2745 0.1914 0.0211 0.0176 -0.0370 0.6838 -10.5931 -3.9298 -0.6393 -10.5796 3.8405 -4.1942 12.2123 -6.4749 -48.0919 -5.2932 -32.5655 0.2610 -0.0366 -42.6491 13.2597 -9.1846 -0.9969 -14.6819 10.7370 15.9073 -59.6062 1.2385 2.2639 12.4057 14.2082 3.6755 70.2311 6.0478 12.4357 -0.0187 0.0392 8.7670 5.0212 -2.1073 -6.2088 15.6297 7.4083 -16.1019 51.3728 -3.7763 -4.9777 7.1671 26.4559 5.4290 0.0206 16.4367 -1.0109 1.8882 6.9330 -9.9196 2.5978 -29.4120 -2.7780 1.9114 -28.7578 -6.5355 0.1800 18.8643 0.1962 0.0523 -1.4371 -5.4153 -1.3930 -7.1186 1.3440
5.1170 94.7218 578.8648 -2.6565 -2.6693 8.4963 0.0512 0.2088 -0.7324 -0.4871 -4.9138 -3.5725 1.9302 13.0857 -4.5854 3.5339 -3.6260 1.4560 -1.2172 -3.5929 -0.2323 -3.9577 -11.8255 -0.1175 0.0487 -0.0054 0.0243 0.7291 -10.6003 -3.8738 -0.6303 -10.5756 3.8913 -5.1262 11.9907 -5.9202 -50.5059 -4.4909 -31.8664 0.3382 -0.1526 -40.9342 13.2569 -9.6076 -1.2811 -14.8258 10.7059 15.7802 -59.5161 1.1925 2.4058 11.8946 14.5976 4.5276 70.2361 5.4826 13.3101 -0.0958 0.0660 8.9153 5.9057 -2.1444 -5.8940 15.3988 7.4347 -16.2725 51.0186 -4.1263 -5.1176 11.5284 19.1193 7.3537 -0.1976 31.2587 -1.1484 -0.0942 18.9070 -11.0209 2.3058 -28.1884 -2.3905 5.4947 -25.8926 -7.4301 0.0279 20.7746 0.0397 0.6891 2.1274 -5.0436 -1.3649 -5.5937 1.2755
4.6711 95.5433 585.3643 -5.0894 -3.0870 7.7347 1.4597 0.8163 -0.5131 -0.0715 -4.6382 -2.8839 3.3594 12.8162 -4.1737 2.3625 -4.0003 1.6527 -1.1387 -3.6603 -0.5668 -3.8422 -12.6539 0.0758 0.0405 -0.0135 -0.0156 0.7854 -10.5625 -3.8965 -0.7065 -10.5356 3.8393 -4.8576 12.2061 -5.1409 -53.9096 -4.6149 -32.0935 0.4209 -0.1556 -37.4772 13.4816 -10.0608 -1.3150 -14.9517 10.6304 15.6181 -59.5327 1.1368 2.1578 10.0909 14.6626 5.4761 70.3916 4.1255 15.3787 0.4569 0.0130 9.3472 5.6655 -2.0861 -5.7087 15.2384 7.3410 -16.2168 51.3339 -3.9265 -5.0271 14.2428 10.5339 7.4516 -0.0657 47.6183 -1.1814 -1.8225 26.6161 -6.9238 2.0533 -8.1800 -2.1444 8.6591 -20.4091 -9.1839 0.0615 20.9169 -0.1480 -0.0232 0.2646 -2.5482 -1.3887 -3.7150 1.1465
4.5078 96.6952 592.1316 -6.1551 -3.7848 7.4174 2.1201 1.3708 -0.2761 0.0805 -4.3171 -2.2944 3.6663 12.8512 -3.9162 2.3046 -4.2500 1.3441 -0.9928 -3.5408 -0.6347 -3.8699 -13.2423 0.3796 0.0381 0.0035 -0.0100 0.7853 -10.5087 -3.8714 -0.7133 -10.4871 3.8292 -4.4791 12.5725 -4.5099 -56.5285 -4.1921 -33.2811 0.5998 0.0300 -32.9049 12.7840 -10.5735 -1.0060 -14.9375 10.5770 15.5763 -59.3621 1.2407 2.1953 9.5735 14.6842 6.0827 69.0291 2.1809 18.2869 0.7909 -0.0491 10.2869 4.4914 -1.9478 -5.3816 15.4399 7.2662 -16.0485 50.9494 -3.8814 -5.1146 14.8125 2.2198 6.7806 -0.3095 59.8215 -1.2665 0.3521 18.6165 -2.8352 2.0447 -5.6234 -2.1070 9.8051 -13.0404 -9.1591 0.0081 17.3761 -0.1709 -0.5879 -1.9722 -1.4801 -1.3850 -3.2099 1.1169
4.3164 98.0701 599.0608 -4.9703 -4.6957 7.0762 1.6229 1.8859 0.0545 -0.1847 -4.1133 -1.7987 2.6587 12.8923 -3.6538 2.9610 -3.8564 1.1045 -1.0488 -3.5320 -0.6669 -3.7066 -12.8419 -0.1309 0.0365 0.0137 -0.0036 0.7475 -10.5094 -3.8549 -0.6800 -10.5080 3.8279 -3.8550 12.8690 -4.2998 -58.9031 -3.0329 -33.8880 0.4072 0.1145 -28.1837 10.1638 -10.7178 0.0353 -14.9634 10.5275 15.5376 -59.3245 1.3191 2.1787 9.6516 14.5838 6.4355 67.2567 -0.5946 19.9451 1.0451 -0.0825 11.7727 2.5847 -1.6821 -5.0305 15.6143 7.2213 -16.1174 50.4475 -3.8783 -5.2707 12.4376 -5.3000 6.6697 -0.5017 64.9567 -1.0428 2.2134 11.2521 -1.5399 1.9118 -6.0952 -2.0814 8.4262 -4.7231 -7.1562 0.0159 11.0370 -0.1214 -1.0066 -3.0961 -1.8826 -1.3923 -3.0680 1.1301
4.1556 98.9575 606.0226 -2.8767 -5.3861 6.3808 0.7330 2.4094 0.3445 -0.4505 -3.9035 -1.2528 1.1960 12.5675 -3.1817 3.1608 -3.2349 1.1148 -1.1348 -3.5885 -0.8420 -3.2793 -12.1003 -0.9282 0.0401 0.0133 0.0063 0.6981 -10.5339 -3.8401 -0.6254 -10.5449 3.8315 -3.1737 13.0661 -4.3585 -61.2644 -1.3477 -33.2156 -0.0488 0.1101 -24.6548 5.9622 -10.7175 1.2721 -15.1317 10.4477 15.4414 -59.4700 1.3204 2.2917 8.8538 14.4243 6.6166 66.1541 -3.7567 20.5830 1.1702 -0.0891 14.4595 1.0481 -2.4261 -4.4550 15.7786 7.1947 -16.1551 50.2089 -3.7896 -5.2943 8.6685 -12.2590 8.0789 -0.3133 64.2695 -0.4822 2.4493 5.9393 -1.7193 1.7988 -6.4797 -2.0453 6.5108 2.9389 -4.4970 0.0378 5.0950 -0.0781 -1.8408 -3.9929 -3.1877 -1.4014 -2.7973 1.0792
